<svg width="512" height="512" viewBox="0 0 512 512" fill="none" xmlns="http://www.w3.org/2000/svg">
<g clip-path="url(#clip0_104_18)">
<rect width="512" height="512" rx="90" fill="black"/>
<path d="M258.125 252.756V131.854C258.125 127.846 259.748 124.002 262.638 121.168C265.527 118.334 269.446 116.742 273.532 116.742H370.552C373.699 116.742 376.771 117.688 379.354 119.452C381.937 121.216 383.908 123.714 385 126.609C386.092 129.504 386.255 132.658 385.465 135.647C384.675 138.635 382.971 141.315 380.582 143.325L308.229 204.153" stroke="white" stroke-width="20" stroke-linecap="round" stroke-linejoin="round"/>
<path d="M258.635 388.77L144.431 276.855C138.653 271.194 135.406 263.516 135.404 255.51V168.607C135.42 165.629 136.332 162.721 138.027 160.248C139.722 157.776 142.124 155.849 144.933 154.709C147.741 153.569 150.83 153.267 153.813 153.841C156.795 154.415 159.539 155.839 161.699 157.935L381.866 373.811" stroke="white" stroke-width="20" stroke-linecap="round" stroke-linejoin="round"/>
<path d="M261.701 122.877L391.145 348.733C392.792 351.61 393.433 354.937 392.969 358.205C392.505 361.473 390.962 364.501 388.576 366.827L370.607 384.378C367.721 387.194 363.816 388.773 359.746 388.77H171.503C168.008 388.771 164.617 387.606 161.888 385.465L123.796 355.569C121.3 353.611 119.487 350.938 118.61 347.923C117.733 344.907 117.835 341.699 118.903 338.743C119.97 335.787 121.95 333.231 124.567 331.43C127.183 329.628 130.307 328.671 133.504 328.692L197.579 329.099" stroke="white" stroke-width="20" stroke-linecap="round" stroke-linejoin="round"/>
</g>
<defs>
<clipPath id="clip0_104_18">
<rect width="512" height="512" fill="white"/>
</clipPath>
</defs>
</svg>
